<?xml version="1.0" encoding="UTF-8" standalone="no"?>
<!-- Created with Inkscape (http://www.inkscape.org/) -->

<svg
   width="200"
   height="72"
   viewBox="0 0 52.916665 19.050001"
   version="1.1"
   id="svg6675"
   sodipodi:docname="logo.svg"
   inkscape:version="1.1 (c68e22c387, 2021-05-23)"
   xmlns:inkscape="http://www.inkscape.org/namespaces/inkscape"
   xmlns:sodipodi="http://sodipodi.sourceforge.net/DTD/sodipodi-0.dtd"
   xmlns="http://www.w3.org/2000/svg"
   xmlns:svg="http://www.w3.org/2000/svg">
  <sodipodi:namedview
     id="namedview6677"
     pagecolor="#ffffff"
     bordercolor="#666666"
     borderopacity="1.0"
     inkscape:pageshadow="2"
     inkscape:pageopacity="0.0"
     inkscape:pagecheckerboard="0"
     inkscape:document-units="px"
     showgrid="false"
     units="px"
     inkscape:zoom="17.597674"
     inkscape:cx="30.174443"
     inkscape:cy="44.721821"
     inkscape:window-width="3840"
     inkscape:window-height="2066"
     inkscape:window-x="2869"
     inkscape:window-y="-11"
     inkscape:window-maximized="1"
     inkscape:current-layer="layer1" />
  <defs
     id="defs6672">
    <linearGradient
       id="linearGradient7623"
       inkscape:swatch="solid">
      <stop
         style="stop-color:#000000;stop-opacity:1;"
         offset="0"
         id="stop7621" />
    </linearGradient>
  </defs>
  <g
     inkscape:label="图层 1"
     inkscape:groupmode="layer"
     id="layer1">
    <path
       style="font-style:normal;font-variant:normal;font-weight:normal;font-stretch:normal;font-size:31.75px;line-height:1.25;font-family:'Source Han Serif CN';-inkscape-font-specification:'Source Han Serif CN';fill:#000000;fill-opacity:1;stroke:none;stroke-width:0.100405"
       d="M 1.4499999e-6,5.2345312e-6 V 19.049932 H 3.302939 v -7.09952 l 1.7280353,0.641257 h 0.420143 l 0.8039554,-0.786363 1.5241171,1.3912 c -0.084,0.120973 -0.2520547,0.169216 -0.5400717,0.181331 -0.4200262,0.749997 -1.1520717,1.983902 -1.8001111,2.770188 1.1546789,0.726005 1.7308221,1.912612 1.7829222,2.901907 h 0.3412321 v -4.099563 c -0.2520164,0.157257 -0.5160251,0.290329 -0.7920411,0.411296 l -0.0959,-0.120887 c 0.6600405,-0.810479 1.2000896,-2.092656 1.4161027,-2.951522 l 1.6559607,0.883036 v -1.403209 l 2.0042254,0.157116 c -0.024,0.169354 -0.107957,0.290367 -0.443973,0.35085 v 3.024172 h 0.492023 l 0.731881,-0.834602 1.380162,1.04035 c -0.072,0.108878 -0.191979,0.193386 -0.467997,0.241773 v 3.266149 c 0,0.0082 -0.01043,0.02057 -0.02793,0.03505 h 2.055986 v -5.418117 l 1.96809,0.75014 h 2.124155 v -2.721756 l 2.304242,0.217757 c -0.024,0.169356 -0.108143,0.302267 -0.444167,0.350654 v 2.153345 h 2.172202 l 0.792041,-0.883035 1.644048,1.257906 c -0.072,0.09677 -0.215982,0.217802 -0.467998,0.266188 v 3.895201 c -0.0037,0.029 -0.09494,0.07798 -0.228922,0.131716 h 1.69444 l -0.06133,-0.216377 h 1.571971 c 0.024,-0.266124 0.02404,-0.544453 0.02404,-0.810583 v -0.725719 h -1.295976 l -0.0961,-0.338845 h 1.392078 v -1.378989 c -0.50403,0.133071 -1.019976,0.254078 -1.512006,0.35085 l -0.07207,-0.133098 c 1.044065,-0.471771 2.748256,-1.645055 3.588309,-2.32247 h -2.136266 c 0.132015,0.822575 -0.131871,1.403113 -0.563901,1.608757 -0.420027,0.217741 -0.984186,0.04832 -1.128194,-0.459731 -0.12,-0.50806 0.192121,-0.846688 0.612148,-1.028139 0.312019,-0.205644 0.63588,-0.689512 0.539873,-1.209669 l 0.156067,-0.01195 c 0.132,0.266128 0.240014,0.520017 0.300017,0.761951 h 3.66019 c -0.03597,-0.532254 -0.37191,-1.088561 -0.779933,-1.366785 l 0.07187,-0.07265 c 0.298517,-0.04686 0.561961,-0.06751 0.793213,-0.06674 1.618735,0.0057 1.659533,1.061628 1.102994,1.50618 h 2.868144 l 0.827983,-0.846612 1.452236,1.378992 c -0.09601,0.09677 -0.204062,0.132927 -0.456079,0.157113 -0.288015,0.205644 -0.696063,0.447738 -1.116085,0.665479 0.684028,0.580639 0.587945,1.294338 0.01186,1.403207 l 0.360174,0.278198 c -0.04801,0.07258 -0.156031,0.145022 -0.324041,0.181331 V 19.05 h 4.207874 c 0.118586,-0.789793 0.14825,-1.608254 0.14825,-2.442175 v -4.475834 l 2.028254,0.677291 h 3.048232 l 0.792038,-0.907252 1.595997,1.270312 c -0.072,0.09677 -0.215981,0.205594 -0.467997,0.253981 v 5.623662 h 4.74304 V 5.2345312e-6 H 47.950151 L 47.777488,2.2852677 l 0.852197,-0.798375 1.487986,1.2458949 c -0.096,0.1088636 -0.227899,0.1934586 -0.479916,0.2297676 -0.108,2.3951448 -0.312067,3.4476194 -0.948106,3.8951948 -0.396027,0.2903219 -0.87607,0.4355136 -1.716118,0.4355136 0.012,-0.5080611 -0.03591,-0.9192992 -0.251972,-1.1612323 C 46.493548,5.8779982 46.097546,5.6721806 45.545513,5.551214 l 0.01186,-0.1208879 c 0.492028,0.036318 1.284098,0.072646 1.524113,0.072646 0.180012,0 0.264069,-0.024262 0.348073,-0.096868 0.228012,-0.1935463 0.347942,-1.1129181 0.419946,-2.7459716 h -3.060164 v 4.6693536 c 0,0.1814504 -0.816162,0.653267 -1.512206,0.653267 H 42.917153 V 2.6601323 H 39.208918 L 39.100904,2.321486 h 3.81625 V 1.9453122e-7 H 37.802382 L 38.453014,0.61585943 C 38.357004,0.72472297 38.236834,0.7610965 37.984818,0.77317633 37.55279,1.2812364 36.808772,1.9707327 36.208734,2.3699233 l -0.0959,-0.072646 c 0.108014,-0.5201591 0.21599,-1.2821898 0.275991,-1.85073466 h -5.952314 l -0.0961,-0.33883981 h 2.688251 V 5.5345312e-6 H 30.074381 L 30.304473,0.19256196 c -0.06,0.0846716 -0.204027,0.18124874 -0.516047,0.21755675 V 5.2367868 c 0.384025,-0.1451604 0.780022,-0.3024693 1.176049,-0.4597287 l 0.03591,0.096868 c -0.324017,0.4596733 -0.996043,1.3306926 -1.884098,2.2742331 -0.096,0.278224 -0.263936,0.4716614 -0.419948,0.59263 L 27.484217,5.9747154 C 28.096252,5.6118157 28.192269,5.4787865 28.192269,5.2005635 V 0.14412746 H 26.872267 L 26.826367,7.2545312e-6 H 22.420049 V 1.2933545 h 0.684027 l 0.888139,-1.11299664 c 0,0 1.007989,0.75004058 1.620023,1.25810064 -0.03599,0.1330696 -0.168059,0.1935392 -0.348071,0.1935392 h -2.844118 v 3.0119666 h 1.116085 l 0.948103,-1.1974632 c 0,0 1.067998,0.7984158 1.728039,1.3427668 -0.03599,0.1330696 -0.179974,0.1935373 -0.359985,0.1935373 h -3.432242 v 2.5402301 c -0.012,0.1088635 -0.564082,0.4839428 -1.548142,0.4839428 h -0.359904 v -3.024176 h -5.604445 l -0.0959,-0.3388398 h 2.016141 V 0.65209486 C 16.227761,1.148059 15.591715,1.5473866 14.919673,1.8981873 L 14.811658,1.8013193 C 15.213869,1.3110351 15.63584,0.69298763 16.039078,5.6345312e-6 h -2.56168 C 14.731071,1.4046231 13.743237,2.9576634 12.471476,2.0917265 12.269509,1.3995418 11.905081,0.67315189 11.480009,5.2345312e-6 H 9.4953163 V 3.3738508 c 0,0.2661275 -0.9000385,0.919459 -1.5840821,0.919459 H 7.6952058 V 5.2345312e-6 H 6.4351627 C 5.674209,1.3990953 4.528365,2.9631268 2.8949063,3.9908919 l -0.0959,-0.096868 C 3.5950173,2.8104043 4.2167437,1.342335 4.6264613,5.2345312e-6 Z m 17.5657285500001,0 C 17.35361,0.2090434 17.136061,0.40626686 16.911782,0.59164837 l 1.932151,0.70170513 h 1.66807 V 5.2345312e-6 Z m 17.071165,0 V 0.10770253 h 1.644043 L 36.387781,5.2345312e-6 Z m 10.152577,0 V 2.3214921 h 1.248123 L 46.214754,5.2345312e-6 Z M 33.652851,0.60385722 35.908849,0.90627411 c -0.03601,0.13307049 -0.119871,0.21764939 -0.45589,0.22976549 -0.14401,1.2217655 -0.372158,2.2620878 -0.744186,3.1330491 h 1.224096 l 0.81607,-1.0765703 c 0,0 0.936142,0.7257131 1.488174,1.2216773 -0.02397,0.1330696 -0.156137,0.1935393 -0.336148,0.1935393 h -3.34806 C 33.700851,6.3859505 32.176783,7.4383707 29.476616,8.0432034 L 29.428576,7.9223165 C 31.288689,7.232804 32.428674,6.1440143 33.040712,4.607735 h -2.820094 l -0.0961,-0.3386473 h 3.04823 c 0.348021,-1.0282178 0.49213,-2.2378238 0.480108,-3.6652325 z m -1.717493,0.19511271 c 2.149877,0.0607922 1.416303,2.09278067 0.2174,1.51051387 C 31.996746,1.7893247 31.540581,1.2206135 31.108553,0.93029364 l 0.08399,-0.0846616 c 0.189766,-0.0264397 0.364696,-0.0413581 0.525614,-0.046267 0.07543,-0.002318 0.147853,-0.002318 0.217205,-3.8001e-4 z M 18.675953,1.6319957 v 3.0119666 h 1.83605 V 1.6319957 Z M 10.8995,1.8013199 13.023654,2.8778937 c -0.096,0.1451564 -0.264189,0.1935815 -0.576208,0.1573108 C 10.095302,6.7730813 7.2512676,7.7166813 3.2910237,8.0311962 L 3.2548967,7.8738803 C 6.5551001,6.9666286 9.3154091,5.6117764 10.899507,1.8013199 Z m 20.330351,0.6501159 c 2.42703,0.014787 1.632328,2.186539 0.394751,1.5514664 -0.132,-0.5443505 -0.588043,-1.1370208 -1.00807,-1.4394377 l 0.08399,-0.084662 c 0.191261,-0.019656 0.367527,-0.028496 0.529328,-0.027357 z m 3.383018,2.5433796 c 4.452274,0.532249 3.63624,3.6532964 2.016142,2.8186245 C 36.196983,6.8698963 35.272816,5.7810844 34.516772,5.079477 Z M 11.571415,12.385923 c 3.660225,0.447579 2.676236,3.145134 1.27215,2.310461 -0.240015,-0.774189 -0.864022,-1.657166 -1.368053,-2.237808 z m -6.7084196,0.544391 v 6.119618 h 0.8303249 c 0.022041,-0.09184 0.033786,-0.202709 0.033786,-0.337461 0,-0.822574 -0.1440087,-1.77822 -0.6000361,-2.528217 0.1680098,-0.822573 0.3719674,-2.286206 0.4439717,-3.25394 z m 38.0783166,0.217755 v 2.34669 h 3.432239 v -2.34669 z m -33.1940328,0.21776 c -0.072,0.0363 -0.1799472,0.04829 -0.3359586,0.03623 -0.3960237,0.459675 -0.936127,0.955608 -1.5721664,1.378993 l 1.3682487,0.520172 h 0.5398763 z m 21.2653718,0.108878 1.332112,0.955486 c -0.096,0.14516 -0.312027,0.205701 -0.708054,0.157314 -0.636038,0.241933 -1.572153,0.568581 -2.556211,0.846806 l 1.320007,0.133098 c -0.02399,0.157256 -0.120014,0.278158 -0.408036,0.31443 v 1.004117 l 0.564097,-0.798371 c 0,0 0.696142,0.604843 1.104169,1.016129 -0.03597,0.13307 -0.156119,0.19354 -0.312129,0.19354 h -1.356137 v 0.737928 c 0,0.266128 -0.01186,0.532252 -0.04786,0.798374 h 0.02404 l 0.660006,-0.943676 c 0,0 0.744022,0.6533 1.176051,1.08878 -0.0073,0.02697 -0.01887,0.05017 -0.0328,0.07128 h 0.08086 v -3.748713 l 1.439936,0.580619 h 2.040161 l 0.504135,-0.532186 c -0.852042,-0.616939 -2.064139,-1.185521 -3.024199,-1.45165 l 0.07189,-0.157309 c 1.476087,-0.145161 2.53228,0.03642 3.228324,0.338841 0.02399,-0.205645 0.04796,-0.411288 0.05996,-0.604834 z m -13.704945,1.245895 v 3.253941 H 19.5639 v -3.253941 z m 4.116269,0 v 3.253941 h 2.280218 V 14.720602 Z M 9.0872785,15.639861 v 1.221877 H 11.84741 v -1.221877 z m 33.8540335,0.19354 v 0.762148 c 0,0.556449 -0.012,1.112865 -0.08399,1.681411 h 3.51623 v -2.443559 z m -9.708606,0.387277 v 2.829254 h 0.375415 c 0.09031,-0.74961 0.08491,-1.568775 0.09258,-2.466395 l 1.692093,0.145108 c -0.02397,0.169354 -0.1319,0.290362 -0.39592,0.326633 -0.02397,0.604833 -0.04801,1.173372 -0.108014,1.705625 l 0.540068,0.04844 V 16.220682 Z M 9.0872785,17.200384 v 1.282318 H 11.84741 v -1.282318 z m 8.2204275,1.112999 v 0.62905 c 0,0.03033 -0.02454,0.06733 -0.06601,0.107495 h 2.322214 v -0.736545 z m 4.116269,0 v 0.736549 h 2.280218 v -0.736549 z m 21.385296,0.302418 c -0.02302,0.145243 -0.05174,0.289866 -0.0836,0.434131 h 3.647877 V 18.615801 Z M 9.0872785,18.821348 v 0.228584 h 0.6240607 v -0.228584 z m 2.1841185,0 v 0.228584 h 0.576013 v -0.228584 z m 24.157536,0.19354 c -0.01551,0.01253 -0.03286,0.02416 -0.05157,0.03505 h 0.05157 z"
       id="text1023" />
  </g>
</svg>
